<?xml version="1.0" standalone="no"?><!DOCTYPE svg PUBLIC "-//W3C//DTD SVG 1.1//EN" "http://www.w3.org/Graphics/SVG/1.1/DTD/svg11.dtd"><svg class="icon" width="200px" height="198.64px" viewBox="0 0 1031 1024" version="1.1" xmlns="http://www.w3.org/2000/svg"><path d="M515.39 957.86c-21.546 0-36.875-14.254-40.766-18.268-17.623-17.357-347.259-342.231-392.438-391.168C29.44 495.708 0 424.653 0 349.082s29.44-146.627 82.893-200.07C136.315 95.58 207.37 66.14 282.973 66.14c75.56 0 146.605 29.43 200.058 82.872a277.092 277.092 0 0 1 32.358 38.953 277.142 277.142 0 0 1 32.349-38.953C601.18 95.57 672.236 66.14 747.817 66.14c75.56 0 146.616 29.43 200.08 82.872 53.432 53.464 82.861 124.509 82.861 200.07 0 75.57-29.43 146.616-82.862 200.079-44.503 48.21-374.23 373.187-391.741 390.44-3.87 4.005-19.22 18.259-40.766 18.259zM282.971 117.34c-61.921 0-120.115 24.105-163.87 67.87C75.314 228.988 51.2 287.192 51.2 349.083c0 61.9 24.115 120.105 67.891 163.88 45.333 49.06 388.28 387.021 391.731 390.421 0.256 0.246 0.512 0.512 0.748 0.768 0.83 0.789 2.724 2.028 3.82 2.427 1.105-0.4 3.051-1.68 4.167-2.775 3.86-3.82 346.798-341.78 391.434-390.113 44.473-44.524 68.567-102.718 68.567-164.608s-24.105-120.085-67.87-163.86c-43.766-43.767-101.97-67.872-163.871-67.872s-120.105 24.105-163.881 67.871c-18.463 18.483-33.751 40.325-45.425 64.922a25.613 25.613 0 0 1-23.132 14.633 25.613 25.613 0 0 1-23.132-14.633c-11.663-24.576-26.941-46.428-45.445-64.922-43.756-43.776-101.94-67.88-163.83-67.88z" /></svg>